<svg width="333" height="133" viewBox="0 0 333 133" fill="none" xmlns="http://www.w3.org/2000/svg">
<path d="M40.5774 98.66C33.7174 98.66 27.4174 97.645 21.6774 95.615C16.0074 93.585 11.4224 90.61 7.9224 86.69C4.4224 82.7 2.4974 77.8 2.1474 71.99C2.0074 69.61 2.3924 66.985 3.3024 64.115C4.2124 61.245 5.4724 58.41 7.0824 55.61C8.7624 52.74 10.7224 50.185 12.9624 47.945C15.2724 45.635 17.7224 43.885 20.3124 42.695C20.5224 42.555 20.8374 42.45 21.2574 42.38C21.7474 42.31 22.0974 42.275 22.3074 42.275C22.7274 42.275 22.9374 42.38 22.9374 42.59C22.9374 42.94 22.4124 43.5 21.3624 44.27C18.4224 46.58 16.0074 49.24 14.1174 52.25C12.1574 55.26 10.6874 58.48 9.7074 61.91C8.7274 65.34 8.2374 68.805 8.2374 72.305C8.2374 76.435 9.1124 80.005 10.8624 83.015C12.6824 85.955 15.0974 88.37 18.1074 90.26C21.1174 92.22 24.5474 93.655 28.3974 94.565C32.2474 95.475 36.2724 95.93 40.4724 95.93C45.1624 95.93 49.7824 95.405 54.3324 94.355C58.9524 93.305 63.1524 91.8 66.9324 89.84C72.7424 86.76 77.3274 82.945 80.6874 78.395C84.1174 73.845 85.8324 69.33 85.8324 64.85C85.8324 62.47 85.3074 60.195 84.2574 58.025C83.2774 55.855 81.6674 53.895 79.4274 52.145C77.7474 50.815 75.6824 49.555 73.2324 48.365C70.8524 47.175 68.2974 46.02 65.5674 44.9C62.9074 43.78 60.2824 42.66 57.6924 41.54C55.1024 40.35 52.8274 39.09 50.8674 37.76C48.0674 35.87 46.0024 33.84 44.6724 31.67C43.4124 29.5 42.7824 27.33 42.7824 25.16C42.7824 22.57 43.5174 20.05 44.9874 17.6C46.5274 15.15 48.5924 12.945 51.1824 10.985C53.8424 8.955 56.8174 7.38 60.1074 6.26C62.9774 5.28 66.0924 4.50999 69.4524 3.94999C72.8824 3.39 76.2424 3.11 79.5324 3.11C82.2624 3.11 84.8524 3.32 87.3024 3.74C89.8224 4.09 92.0274 4.755 93.9174 5.735C96.2974 6.855 98.1174 8.36 99.3774 10.25C100.637 12.07 101.267 13.995 101.267 16.025C101.267 18.825 100.007 21.275 97.4874 23.375C96.5774 24.075 95.5624 24.74 94.4424 25.37C93.3224 25.93 91.9924 26.42 90.4524 26.84C90.1724 26.91 89.8574 26.945 89.5074 26.945C88.6674 26.945 88.2474 26.7 88.2474 26.21C88.2474 25.93 88.4574 25.65 88.8774 25.37C89.3674 25.02 90.0674 24.81 90.9774 24.74C93.0774 24.46 94.6524 23.655 95.7024 22.325C96.8224 20.995 97.3824 19.455 97.3824 17.705C97.3824 15.885 96.7524 14.1 95.4924 12.35C94.3024 10.53 92.4474 9.02499 89.9274 7.83499C87.4074 6.575 84.1874 5.945 80.2674 5.945C78.0274 5.945 75.5424 6.19 72.8124 6.68C70.1524 7.17 67.2474 7.975 64.0974 9.095C60.2474 10.425 57.0274 12.385 54.4374 14.975C51.9174 17.565 50.6574 20.33 50.6574 23.27C50.6574 25.09 51.2524 26.945 52.4424 28.835C53.7024 30.655 55.6974 32.405 58.4274 34.085C60.7374 35.485 63.3624 36.885 66.3024 38.285C69.2424 39.615 72.2174 40.98 75.2274 42.38C78.2374 43.71 80.9674 45.145 83.4174 46.685C87.2674 49.065 90.0324 51.62 91.7124 54.35C93.3924 57.08 94.2324 59.88 94.2324 62.75C94.2324 66.11 93.2174 69.505 91.1874 72.935C89.2274 76.295 86.6374 79.48 83.4174 82.49C80.1974 85.43 76.6624 88.055 72.8124 90.365C68.3324 93.025 63.2574 95.055 57.5874 96.455C51.9874 97.925 46.3174 98.66 40.5774 98.66ZM126.179 89.315C125.409 89.385 124.534 89.21 123.554 88.79C122.574 88.37 121.699 87.6 120.929 86.48C120.229 85.36 119.879 83.785 119.879 81.755C119.879 80.075 120.194 78.045 120.824 75.665C119.984 76.995 118.899 78.64 117.569 80.6C116.239 82.49 114.804 84.17 113.264 85.64C111.934 86.9 110.674 87.81 109.484 88.37C108.294 88.93 107.209 89.21 106.229 89.21C104.409 89.21 102.939 88.405 101.819 86.795C100.699 85.115 100.139 82.945 100.139 80.285C100.139 77.485 100.839 74.3 102.239 70.73C103.639 67.16 105.914 63.45 109.064 59.6C111.094 57.15 113.544 55.19 116.414 53.72C119.354 52.18 122.224 51.41 125.024 51.41C126.634 51.41 128.174 51.69 129.644 52.25C131.114 52.74 132.409 53.58 133.529 54.77C134.019 55.26 134.264 55.82 134.264 56.45C134.264 56.87 134.089 57.22 133.739 57.5C133.389 57.78 132.934 57.85 132.374 57.71C131.604 55.26 129.959 54.035 127.439 54.035C126.249 54.035 124.884 54.42 123.344 55.19C120.964 56.45 118.479 58.515 115.889 61.385C113.369 64.255 111.164 67.23 109.274 70.31C108.994 70.73 108.539 71.535 107.909 72.725C107.349 73.915 106.789 75.245 106.229 76.715C105.669 78.185 105.284 79.62 105.074 81.02C105.004 81.44 104.969 81.755 104.969 81.965C104.969 82.105 104.969 82.35 104.969 82.7C104.969 85.01 105.844 86.165 107.594 86.165C109.694 86.165 112.074 84.625 114.734 81.545C116.554 79.305 118.199 76.96 119.669 74.51C121.139 72.06 122.644 69.435 124.184 66.635C125.234 64.745 126.214 63.17 127.124 61.91C128.034 60.65 129.329 60.02 131.009 60.02C131.779 60.02 132.549 60.125 133.319 60.335C134.089 60.545 134.894 60.58 135.734 60.44C135.174 61 134.404 62.05 133.424 63.59C132.514 65.13 131.534 66.88 130.484 68.84C129.434 70.8 128.489 72.795 127.649 74.825C126.809 76.855 126.214 78.605 125.864 80.075C125.794 80.495 125.689 81.09 125.549 81.86C125.479 82.63 125.444 83.19 125.444 83.54C125.444 85.5 126.004 86.48 127.124 86.48C128.244 86.48 129.434 85.815 130.694 84.485C132.024 83.155 133.319 81.51 134.579 79.55C135.839 77.59 136.994 75.63 138.044 73.67C139.094 71.64 139.934 69.995 140.564 68.735C140.844 68.035 141.264 67.685 141.824 67.685C142.174 67.685 142.349 67.93 142.349 68.42C142.349 68.63 142.244 69.015 142.034 69.575C141.194 71.325 140.179 73.32 138.989 75.56C137.799 77.73 136.504 79.865 135.104 81.965C133.704 83.995 132.234 85.71 130.694 87.11C129.224 88.44 127.719 89.175 126.179 89.315ZM142.828 89.42C139.398 89.42 136.948 88.545 135.478 86.795C134.078 84.975 133.378 83.085 133.378 81.125C133.378 79.515 133.763 78.045 134.533 76.715C135.373 75.385 136.353 74.685 137.473 74.615C138.873 71.885 140.378 68.91 141.988 65.69C143.668 62.47 145.208 59.355 146.608 56.345C147.588 54.315 148.813 52.355 150.283 50.465C151.823 48.575 153.503 47.49 155.323 47.21H156.373C156.933 47.21 157.423 47.245 157.843 47.315C158.333 47.385 158.823 47.525 159.313 47.735C160.083 48.085 160.468 48.61 160.468 49.31C160.468 49.73 160.223 49.94 159.733 49.94C159.523 49.94 159.243 49.835 158.893 49.625C158.053 49.275 157.318 49.1 156.688 49.1C156.268 49.1 155.883 49.205 155.533 49.415C154.203 50.115 153.258 51.095 152.698 52.355C152.208 53.615 151.963 54.945 151.963 56.345C151.963 57.465 152.068 58.62 152.278 59.81C152.558 60.93 152.873 61.945 153.223 62.855C153.993 64.815 154.798 66.74 155.638 68.63C156.548 70.52 157.003 72.55 157.003 74.72C157.003 76.82 156.303 79.06 154.903 81.44C153.503 83.75 151.718 85.605 149.548 87.005L150.283 87.11C150.633 87.18 150.878 87.215 151.018 87.215C151.158 87.215 151.263 87.215 151.333 87.215C152.943 87.215 154.448 86.76 155.848 85.85C157.318 84.87 158.613 83.68 159.733 82.28C160.853 80.88 162.113 78.92 163.513 76.4C164.983 73.88 166.383 71.22 167.713 68.42C167.923 68.07 168.168 67.895 168.448 67.895C168.798 67.895 169.043 68.035 169.183 68.315C169.393 68.525 169.428 68.805 169.288 69.155C168.378 71.115 167.328 73.25 166.138 75.56C165.018 77.8 163.723 79.97 162.253 82.07C160.783 84.1 159.068 85.78 157.108 87.11C155.218 88.37 153.083 89 150.703 89C150.143 89 149.548 88.965 148.918 88.895C148.288 88.825 147.658 88.685 147.028 88.475C146.328 88.755 145.593 88.965 144.823 89.105C144.123 89.315 143.458 89.42 142.828 89.42ZM145.978 86.27C147.168 85.29 148.218 83.855 149.128 81.965C150.108 80.075 150.598 77.59 150.598 74.51C150.598 71.78 150.318 68.875 149.758 65.795C149.198 62.715 148.918 59.985 148.918 57.605C148.918 57.115 148.918 56.695 148.918 56.345C148.988 55.925 149.058 55.54 149.128 55.19C148.218 57.08 147.168 59.285 145.978 61.805C144.788 64.255 143.598 66.635 142.408 68.945C141.218 71.255 140.203 73.215 139.363 74.825C139.363 74.825 139.538 74.86 139.888 74.93C140.308 74.93 140.693 75.175 141.043 75.665C141.393 76.085 141.533 76.96 141.463 78.29C141.393 80.04 141.778 81.685 142.618 83.225C143.528 84.695 144.648 85.71 145.978 86.27ZM141.988 87.74C142.408 87.74 142.793 87.705 143.143 87.635C143.493 87.495 143.808 87.39 144.088 87.32C143.038 86.55 142.093 85.535 141.253 84.275C140.483 82.945 140.028 81.265 139.888 79.235C138.628 80.565 137.998 82 137.998 83.54C137.998 84.66 138.348 85.64 139.048 86.48C139.748 87.32 140.728 87.74 141.988 87.74ZM172.525 89C170.565 89 168.815 88.335 167.275 87.005C165.735 85.605 164.965 83.435 164.965 80.495C164.965 78.185 165.385 75.35 166.225 71.99C167.135 68.56 168.22 65.025 169.48 61.385C170.81 57.675 172.105 54.315 173.365 51.305H167.8C167.31 51.305 167.065 50.955 167.065 50.255C167.065 49.905 167.135 49.59 167.275 49.31C167.485 49.03 167.765 48.89 168.115 48.89H174.415C175.605 46.23 176.865 43.64 178.195 41.12C179.525 38.6 180.82 36.22 182.08 33.98C183.69 31.18 185.405 29.08 187.225 27.68C189.045 26.28 190.62 25.58 191.95 25.58C193 25.58 193.875 26 194.575 26.84C195.275 27.61 195.625 28.8 195.625 30.41C195.625 31.39 195.415 32.755 194.995 34.505C194.575 36.185 193.91 37.97 193 39.86C192.51 40.84 191.81 42.24 190.9 44.06C190.06 45.88 189.22 47.49 188.38 48.89H193.42C193.91 48.89 194.155 49.24 194.155 49.94C194.155 50.22 194.085 50.535 193.945 50.885C193.805 51.165 193.595 51.305 193.315 51.305H187.12C185.37 54.315 183.375 57.255 181.135 60.125C178.895 62.995 176.235 65.865 173.155 68.735C172.945 69.365 172.665 70.275 172.315 71.465C172.035 72.655 171.755 73.88 171.475 75.14C171.265 76.33 171.055 77.345 170.845 78.185C170.705 79.025 170.635 79.445 170.635 79.445C170.425 80.355 170.32 81.195 170.32 81.965C170.32 83.435 170.67 84.52 171.37 85.22C172.07 85.85 172.875 86.165 173.785 86.165C174.345 86.165 174.905 86.095 175.465 85.955C176.025 85.745 176.655 85.395 177.355 84.905C179.805 83.155 181.94 80.775 183.76 77.765C185.65 74.755 187.295 71.85 188.695 69.05C189.115 68.21 189.535 67.79 189.955 67.79C190.235 67.79 190.375 68 190.375 68.42C190.375 68.63 190.27 69.015 190.06 69.575C188.52 72.795 187.225 75.385 186.175 77.345C185.125 79.305 184.11 80.95 183.13 82.28C182.15 83.54 180.995 84.8 179.665 86.06C178.685 87.04 177.565 87.775 176.305 88.265C175.045 88.755 173.785 89 172.525 89ZM180.82 48.89H186.175C187.155 47.07 188.065 45.285 188.905 43.535C189.815 41.785 190.62 40.035 191.32 38.285C191.81 37.165 192.23 35.905 192.58 34.505C192.93 33.105 193.105 32.02 193.105 31.25C193.105 30.2 192.86 29.675 192.37 29.675C192.02 29.675 191.495 29.99 190.795 30.62C190.165 31.18 189.36 32.16 188.38 33.56C187.12 35.31 185.86 37.585 184.6 40.385C183.41 43.115 182.15 45.95 180.82 48.89ZM173.995 65.375C176.025 63.275 177.915 61.035 179.665 58.655C181.485 56.275 183.165 53.825 184.705 51.305H179.77C178.65 53.895 177.6 56.415 176.62 58.865C175.64 61.315 174.765 63.485 173.995 65.375ZM200.999 89.105C199.669 89.105 198.339 88.58 197.009 87.53C195.679 86.41 195.014 84.625 195.014 82.175C195.014 80.285 195.469 78.115 196.379 75.665C197.219 73.285 198.339 70.975 199.739 68.735C201.209 66.495 202.259 64.675 202.889 63.275C203.099 62.715 203.204 62.225 203.204 61.805C203.204 60.545 202.399 59.635 200.789 59.075C199.249 58.515 197.219 58.2 194.699 58.13L193.439 61.595C192.669 63.835 191.584 66.46 190.184 69.47C188.854 72.48 187.349 75.385 185.669 78.185C184.059 80.985 182.379 83.225 180.629 84.905C180.489 85.045 180.314 85.115 180.104 85.115C179.824 85.115 179.649 84.94 179.579 84.59C179.439 84.24 179.579 83.82 179.999 83.33C182.729 79.69 185.179 75.665 187.349 71.255C189.519 66.775 191.339 62.225 192.809 57.605C194.349 52.985 195.469 48.715 196.169 44.795C196.379 43.675 196.764 42.87 197.324 42.38C197.884 41.82 198.479 41.54 199.109 41.54C200.019 41.54 200.859 41.995 201.629 42.905C202.399 43.745 202.784 44.97 202.784 46.58C202.784 46.86 202.749 47.175 202.679 47.525C202.679 47.875 202.644 48.225 202.574 48.575C202.294 50.045 201.454 51.445 200.054 52.775C198.724 54.035 197.639 54.98 196.799 55.61C197.499 55.68 198.234 55.75 199.004 55.82C199.774 55.82 200.614 55.82 201.524 55.82C204.814 55.82 208.069 55.61 211.289 55.19C211.429 55.61 211.499 55.925 211.499 56.135C211.499 57.045 211.219 58.2 210.659 59.6C210.169 61 209.644 62.26 209.084 63.38C208.804 64.01 208.244 65.165 207.404 66.845C206.564 68.455 205.654 70.31 204.674 72.41C203.694 74.44 202.854 76.47 202.154 78.5C201.524 80.46 201.209 82.14 201.209 83.54C201.209 85.36 201.909 86.27 203.309 86.27C204.359 86.27 205.514 85.605 206.774 84.275C208.034 82.875 209.259 81.195 210.449 79.235C211.709 77.205 212.829 75.245 213.809 73.355C214.859 71.395 215.664 69.855 216.224 68.735C216.504 68.035 216.889 67.685 217.379 67.685C217.659 67.685 217.799 67.93 217.799 68.42C217.799 68.7 217.694 69.12 217.484 69.68C216.714 71.29 215.804 73.11 214.754 75.14C213.704 77.17 212.514 79.165 211.184 81.125C209.924 83.085 208.524 84.8 206.984 86.27C205.514 87.67 203.904 88.58 202.154 89C201.944 89.07 201.559 89.105 200.999 89.105ZM238.561 89.315C237.791 89.385 236.916 89.21 235.936 88.79C234.956 88.37 234.081 87.6 233.311 86.48C232.611 85.36 232.261 83.785 232.261 81.755C232.261 80.075 232.576 78.045 233.206 75.665C232.366 76.995 231.281 78.64 229.951 80.6C228.621 82.49 227.186 84.17 225.646 85.64C224.316 86.9 223.056 87.81 221.866 88.37C220.676 88.93 219.591 89.21 218.611 89.21C216.791 89.21 215.321 88.405 214.201 86.795C213.081 85.115 212.521 82.945 212.521 80.285C212.521 77.485 213.221 74.3 214.621 70.73C216.021 67.16 218.296 63.45 221.446 59.6C223.476 57.15 225.926 55.19 228.796 53.72C231.736 52.18 234.606 51.41 237.406 51.41C239.016 51.41 240.556 51.69 242.026 52.25C243.496 52.74 244.791 53.58 245.911 54.77C246.401 55.26 246.646 55.82 246.646 56.45C246.646 56.87 246.471 57.22 246.121 57.5C245.771 57.78 245.316 57.85 244.756 57.71C243.986 55.26 242.341 54.035 239.821 54.035C238.631 54.035 237.266 54.42 235.726 55.19C233.346 56.45 230.861 58.515 228.271 61.385C225.751 64.255 223.546 67.23 221.656 70.31C221.376 70.73 220.921 71.535 220.291 72.725C219.731 73.915 219.171 75.245 218.611 76.715C218.051 78.185 217.666 79.62 217.456 81.02C217.386 81.44 217.351 81.755 217.351 81.965C217.351 82.105 217.351 82.35 217.351 82.7C217.351 85.01 218.226 86.165 219.976 86.165C222.076 86.165 224.456 84.625 227.116 81.545C228.936 79.305 230.581 76.96 232.051 74.51C233.521 72.06 235.026 69.435 236.566 66.635C237.616 64.745 238.596 63.17 239.506 61.91C240.416 60.65 241.711 60.02 243.391 60.02C244.161 60.02 244.931 60.125 245.701 60.335C246.471 60.545 247.276 60.58 248.116 60.44C247.556 61 246.786 62.05 245.806 63.59C244.896 65.13 243.916 66.88 242.866 68.84C241.816 70.8 240.871 72.795 240.031 74.825C239.191 76.855 238.596 78.605 238.246 80.075C238.176 80.495 238.071 81.09 237.931 81.86C237.861 82.63 237.826 83.19 237.826 83.54C237.826 85.5 238.386 86.48 239.506 86.48C240.626 86.48 241.816 85.815 243.076 84.485C244.406 83.155 245.701 81.51 246.961 79.55C248.221 77.59 249.376 75.63 250.426 73.67C251.476 71.64 252.316 69.995 252.946 68.735C253.226 68.035 253.646 67.685 254.206 67.685C254.556 67.685 254.731 67.93 254.731 68.42C254.731 68.63 254.626 69.015 254.416 69.575C253.576 71.325 252.561 73.32 251.371 75.56C250.181 77.73 248.886 79.865 247.486 81.965C246.086 83.995 244.616 85.71 243.076 87.11C241.606 88.44 240.101 89.175 238.561 89.315ZM236.836 117.665C235.996 117.665 235.156 117.525 234.316 117.245C233.406 117.035 232.496 117 231.586 117.14C232.006 116.72 232.811 115.495 234.001 113.465C235.191 111.505 236.591 109.055 238.201 106.115C239.741 103.175 241.386 99.99 243.136 96.56C244.886 93.13 246.531 89.77 248.071 86.48C249.611 83.12 250.906 80.075 251.956 77.345C253.076 74.545 253.776 72.34 254.056 70.73C253.426 71.64 252.796 72.165 252.166 72.305C251.606 72.375 251.466 72.165 251.746 71.675C251.886 71.395 252.166 70.73 252.586 69.68C253.076 68.56 253.496 67.615 253.846 66.845C254.406 65.445 254.861 63.905 255.211 62.225C255.631 60.545 255.841 58.935 255.841 57.395C255.841 56.415 255.736 55.575 255.526 54.875C255.316 54.175 254.931 53.79 254.371 53.72C254.371 53.72 254.756 53.65 255.526 53.51C256.296 53.37 257.101 53.23 257.941 53.09C258.781 52.95 259.341 52.88 259.621 52.88C260.041 52.81 260.426 52.775 260.776 52.775C261.126 52.705 261.441 52.67 261.721 52.67C262.351 52.67 262.771 52.915 262.981 53.405C263.261 53.825 263.401 54.735 263.401 56.135C263.401 57.885 263.086 60.125 262.456 62.855C261.896 65.515 261.231 67.86 260.461 69.89C261.231 68.63 262.211 67.02 263.401 65.06C264.661 63.1 266.096 61.105 267.706 59.075C269.316 57.045 270.996 55.365 272.746 54.035C274.496 52.635 276.211 51.935 277.891 51.935C278.241 51.935 278.696 52.005 279.256 52.145C281.216 52.635 282.581 53.615 283.351 55.085C284.191 56.485 284.611 58.165 284.611 60.125C284.611 62.225 284.191 64.535 283.351 67.055C282.581 69.575 281.531 72.06 280.201 74.51C278.871 76.89 277.401 79.06 275.791 81.02C273.831 83.47 271.486 85.43 268.756 86.9C266.026 88.37 263.226 89.105 260.356 89.105C257.766 89.105 255.351 88.44 253.111 87.11L243.136 112.205C242.156 114.305 241.211 115.74 240.301 116.51C239.391 117.28 238.236 117.665 236.836 117.665ZM256.996 86.9C258.956 86.9 261.161 85.99 263.611 84.17C266.061 82.35 268.406 80.04 270.646 77.24C272.956 74.37 274.881 71.5 276.421 68.63C277.471 66.67 278.241 64.885 278.731 63.275C279.221 61.595 279.466 60.16 279.466 58.97C279.466 56.24 278.486 54.875 276.526 54.875C275.616 54.875 274.426 55.365 272.956 56.345C271.556 57.325 269.911 59.11 268.021 61.7C265.991 64.5 263.751 68.035 261.301 72.305C258.921 76.505 256.471 80.95 253.951 85.64C254.791 86.48 255.806 86.9 256.996 86.9ZM274.099 122.495C270.459 122.495 267.869 121.76 266.329 120.29C264.789 118.89 264.019 117.21 264.019 115.25C264.019 114.2 264.159 113.29 264.439 112.52C264.719 111.75 265.139 110.77 265.699 109.58C266.679 107.55 268.044 105.8 269.794 104.33C271.544 102.86 273.434 101.67 275.464 100.76C279.104 99.08 283.234 97.715 287.854 96.665C292.544 95.615 297.024 94.46 301.294 93.2C302.624 90.89 303.849 88.265 304.969 85.325C306.089 82.315 307.104 79.41 308.014 76.61C308.924 73.74 309.659 71.395 310.219 69.575C309.379 71.115 308.294 73.005 306.964 75.245C305.704 77.415 304.269 79.55 302.659 81.65C301.049 83.75 299.299 85.5 297.409 86.9C295.589 88.3 293.664 89 291.634 89C290.864 89 289.919 88.825 288.799 88.475C287.749 88.125 286.804 87.495 285.964 86.585C285.194 85.605 284.809 84.17 284.809 82.28C284.809 80.46 285.229 78.71 286.069 77.03C286.979 75.28 287.819 73.6 288.589 71.99C288.379 71.99 288.134 71.92 287.854 71.78C287.644 71.64 287.539 71.43 287.539 71.15C287.539 70.87 287.609 70.59 287.749 70.31C288.029 69.75 288.344 69.155 288.694 68.525C289.044 67.895 289.359 67.23 289.639 66.53C290.689 64.36 291.739 62.295 292.789 60.335C293.839 58.305 294.749 56.52 295.519 54.98C296.289 53.44 297.619 52.67 299.509 52.67H306.019C305.529 53.09 304.899 53.58 304.129 54.14C303.429 54.63 302.764 55.4 302.134 56.45C300.244 59.67 298.599 62.785 297.199 65.795C295.799 68.735 294.294 71.885 292.684 75.245C291.914 76.855 291.354 78.325 291.004 79.655C290.654 80.985 290.479 82.14 290.479 83.12C290.479 85.43 291.249 86.585 292.789 86.585C294.469 86.585 296.499 85.22 298.879 82.49C300.839 80.18 302.799 77.45 304.759 74.3C306.789 71.08 308.714 67.79 310.534 64.43C312.424 61 314.069 57.85 315.469 54.98C316.239 53.44 317.604 52.67 319.564 52.67H325.339C323.309 54.07 321.734 55.89 320.614 58.13C319.564 60.37 318.374 63.24 317.044 66.74C315.574 70.59 314.174 74.58 312.844 78.71C311.584 82.77 310.149 86.865 308.539 90.995C310.849 90.225 313.439 89.035 316.309 87.425C319.249 85.815 321.734 83.505 323.764 80.495C325.374 78.115 326.739 75.84 327.859 73.67C329.049 71.43 329.889 69.82 330.379 68.84C330.659 68.14 331.044 67.79 331.534 67.79C332.024 67.79 332.269 68.105 332.269 68.735C332.269 69.085 332.164 69.47 331.954 69.89C330.134 73.53 328.489 76.61 327.019 79.13C325.619 81.58 324.044 83.715 322.294 85.535C320.614 87.285 318.549 88.825 316.099 90.155C313.649 91.555 310.534 92.955 306.754 94.355C305.074 97.365 303.149 100.48 300.979 103.7C298.879 106.99 296.464 110.035 293.734 112.835C291.074 115.705 288.099 118.015 284.809 119.765C281.589 121.585 278.019 122.495 274.099 122.495ZM271.579 120.395C273.889 120.395 276.269 119.695 278.719 118.295C281.169 116.895 283.549 115.11 285.859 112.94C288.169 110.84 290.269 108.67 292.159 106.43C294.119 104.26 295.694 102.335 296.884 100.655C297.234 100.165 297.619 99.535 298.039 98.765C298.459 97.995 298.879 97.26 299.299 96.56C295.869 97.47 292.089 98.45 287.959 99.5C283.899 100.62 280.364 101.845 277.354 103.175C273.994 104.575 271.369 106.57 269.479 109.16C267.519 111.75 266.539 114.06 266.539 116.09C266.539 117.35 266.959 118.365 267.799 119.135C268.569 119.975 269.829 120.395 271.579 120.395Z" fill="url(#paint0_linear_301_9)"/>
<path d="M2 131C16 120.333 78.8 102.2 218 115" stroke="url(#paint1_linear_301_9)" stroke-width="3" stroke-linecap="round"/>
<defs>
<linearGradient id="paint0_linear_301_9" x1="190" y1="36" x2="163.5" y2="131" gradientUnits="userSpaceOnUse">
<stop stop-color="#E90000"/>
<stop offset="1" stop-color="#FF00E5"/>
</linearGradient>
<linearGradient id="paint1_linear_301_9" x1="189" y1="111" x2="110" y2="131" gradientUnits="userSpaceOnUse">
<stop stop-color="#E90000"/>
<stop offset="1" stop-color="#FF00E5"/>
</linearGradient>
</defs>
</svg>
